<?xml version="1.0" encoding="UTF-8"?>
<svg id="Layer_1" xmlns="http://www.w3.org/2000/svg" version="1.1" xmlns:xlink="http://www.w3.org/1999/xlink" viewBox="0 0 300 300">
  <!-- Generator: Adobe Illustrator 29.0.0, SVG Export Plug-In . SVG Version: 2.1.0 Build 186)  -->
  <defs>
    <style>
      .st0 {
        clip-path: url(#clippath-6);
      }

      .st1 {
        clip-path: url(#clippath-7);
      }

      .st2 {
        clip-path: url(#clippath-4);
      }

      .st3 {
        fill: none;
      }

      .st4 {
        clip-path: url(#clippath-1);
      }

      .st5 {
        clip-path: url(#clippath-5);
      }

      .st6 {
        clip-path: url(#clippath-3);
      }

      .st7 {
        fill: #3888ff;
      }

      .st8 {
        clip-path: url(#clippath-2);
      }

      .st9 {
        clip-path: url(#clippath);
      }
    </style>
    <clipPath id="clippath">
      <path class="st3" d="M104,.1c-11,.9-20.9,9.3-23.5,20-1.2,5-.6,10-1.4,15.1-3,19.4-18.2,36.8-37.1,42.2-11.3,3.2-22.3.2-32,7.9-23.8,19-1.8,57,27.2,45.3,19.5-7.9,13.6-26,18.6-41.5,15.8-48.5,86.4-47.6,101.2,1.4,4.2,14-.8,26.2,12.6,36.6,23.7,18.5,55.8-11.8,37.8-36.7-9.5-13.1-19.7-9.3-33-12.1-20.1-4.2-37.1-21.5-40.7-41.7-1.2-7.1-.3-14.4-3.3-21.1-4.1-9.5-14.1-15.7-24.4-15.7s-1.4,0-2.1,0h0Z"/>
    </clipPath>
    <clipPath id="clippath-1">
      <path class="st3" d="M192.6,0c-20.6.7-32,23.8-21.2,41.1,9.6,15.5,25.3,10,39.9,15,46.7,16.1,47.1,83.4.8,100-14,5-27.8,0-38.5,12.3-19.8,22.8,8.6,56.2,34.6,39.7,15.8-10,9.9-25.3,15.1-40.3,6-17.1,22.3-31.3,40.3-34.3,9-1.5,15.6.3,24-5,21.5-13.5,13.1-46.5-12.2-49-18.7-1.8-30.7-4-43.2-19.5-10.2-12.5-10.4-21-11.9-36.2C218.8,10.5,207.1,0,193.5,0s-.6,0-.9,0Z"/>
    </clipPath>
    <clipPath id="clippath-2">
      <path class="st3" d="M103,87.6c-11.7,1.3-21.7,11.3-23.1,23-1.9,15.9-1.9,25.3-13.1,38.2-12.9,14.9-24.9,16.4-43.3,18.4-22.8,2.4-31.8,31.6-14,46.6,8.7,7.4,14.6,5.3,24.8,6.8,21.4,3,39.8,20.1,44.2,41.3,2.8,13.2-1,22.3,11.3,32.2,22.6,18.1,54.2-9.1,39.2-34.5-9.9-16.7-25.6-10.7-40.9-16.1-48.7-17.2-45.3-88.7,4.6-101.3,11-2.8,20.6.3,30.2-7.6,19.6-16.1,7.6-47.2-16.7-47.2s-2.2,0-3.3.2h0Z"/>
    </clipPath>
    <clipPath id="clippath-3">
      <path class="st3" d="M91.5,207.6c9.9,16.2,24.9,10.3,40,15.4,18.7,6.3,32.5,23.5,35.3,42.9,1.2,8.5-.5,13,4.3,21.1,10,17,34.7,16.9,45.2.3,5.1-8.1,3.2-14.2,4.6-22.9,3.7-22.3,22.4-40.7,44.8-43.8,10.8-1.5,18.4.5,27-8.5,19.8-20.9-3-54.2-30.1-42.7-18.9,8-13.5,24.4-17.9,39.6-14.6,50-87,49.9-101.7.1-4-13.6.7-25.8-12.1-36.1-5.2-4.2-10.9-6-16.4-6-18.6,0-35,20.9-22.9,40.7h0Z"/>
    </clipPath>
    <clipPath id="clippath-4">
      <path class="st3" d="M249.6,17.1c-2,.6-2.8,6.1-3,8-1,17.4,15.7,31.5,32.7,27.5,6.5-1.5,2.7-5.5.2-9-5.3-7.5-13.7-16-21-21.5-1.7-1.3-6.2-4.9-8.5-4.9s-.3,0-.5,0h0Z"/>
    </clipPath>
    <clipPath id="clippath-5">
      <path class="st3" d="M48.6,17.1c-1.7.4-11.6,8.5-13.6,10.3-2.4,2.1-5.2,4.9-7.3,7.2-2.1,2.3-9.5,11.2-10.3,13.5-1.1,2.9.9,3.8,3.3,4.4,15.9,3.8,32.1-8.5,32.7-24.9,0-2.8-.2-10.6-4-10.6s-.5,0-.8.1Z"/>
    </clipPath>
    <clipPath id="clippath-6">
      <path class="st3" d="M25.3,246.6c-2.7.2-9.1.7-8.1,4.6.5,1.9,8.2,11.3,10,13.3,4.2,4.7,14.9,14.8,20.3,17.5,2.5,1.3,4.1.6,4.9-2.2,4.9-16.6-8.9-33.4-25.8-33.4s-.9,0-1.4,0h0Z"/>
    </clipPath>
    <clipPath id="clippath-7">
      <path class="st3" d="M271.9,246.6c-9.8.5-19.4,7.2-23.1,16.3-2.4,5.8-3.6,14.2.4,19.6,1.2.6,2.2.2,3.3-.3,7.5-3.8,25.9-22.2,29.8-29.8,2.5-4.9-4.6-5.8-8.9-5.8s-1.1,0-1.5,0Z"/>
    </clipPath>
  </defs>
  <g>
    <path class="st7" d="M104,.1c-11,.9-20.9,9.3-23.5,20-1.2,5-.6,10-1.4,15.1-3,19.4-18.2,36.8-37.1,42.2-11.3,3.2-22.3.2-32,7.9-23.8,19-1.8,57,27.2,45.3,19.5-7.9,13.6-26.1,18.6-41.4,15.8-48.5,86.4-47.6,101.2,1.4,4.2,14-.8,26.2,12.6,36.6,23.7,18.5,55.8-11.8,37.8-36.7-9.5-13.1-19.7-9.3-33-12.1-20.1-4.2-37.1-21.4-40.7-41.7-1.2-7.1-.3-14.4-3.3-21.1C126.4,6.3,116.4,0,106.1,0s-1.4,0-2.1,0"/>
    <g class="st9">
      <rect class="st7" x="-13.7" y="0" width="239.1" height="145.8"/>
    </g>
  </g>
  <g>
    <path class="st7" d="M192.6,0c-20.6.7-32,23.8-21.2,41.1,9.6,15.4,25.3,10,39.9,15,46.7,16.1,47.1,83.3.8,100-14,5-27.8,0-38.5,12.3-19.8,22.8,8.6,56.2,34.6,39.7,15.8-10,9.9-25.3,15.1-40.3,6-17.1,22.3-31.3,40.3-34.3,9-1.5,15.6.3,24-5,21.5-13.5,13.1-46.5-12.2-49-18.7-1.8-30.7-4-43.2-19.4-10.2-12.5-10.4-21-11.9-36.2C218.8,10.5,207.1,0,193.5,0s-.6,0-.9,0"/>
    <g class="st4">
      <rect class="st7" x="153.8" y="0" width="155.3" height="224.7"/>
    </g>
  </g>
  <g>
    <path class="st7" d="M103,87.6c-11.7,1.3-21.7,11.3-23.1,23.1-1.9,15.9-1.9,25.3-13.1,38.2-12.9,14.9-24.9,16.4-43.3,18.4-22.8,2.4-31.8,31.6-14,46.6,8.7,7.4,14.6,5.3,24.8,6.8,21.4,3,39.8,20.1,44.2,41.3,2.8,13.2-1,22.3,11.3,32.2,22.6,18.1,54.2-9.1,39.2-34.5-9.9-16.7-25.6-10.7-40.9-16.1-48.7-17.2-45.3-88.7,4.6-101.3,11-2.8,20.6.3,30.2-7.6,19.6-16.1,7.6-47.2-16.7-47.2s-2.2,0-3.3.2"/>
    <g class="st8">
      <rect class="st7" x="-8.2" y="87.4" width="152.3" height="224.8"/>
    </g>
  </g>
  <g>
    <path class="st7" d="M91.5,207.6c9.9,16.2,24.9,10.3,40,15.4,18.7,6.3,32.5,23.5,35.3,42.9,1.2,8.5-.5,13,4.3,21.1,10,17,34.7,16.9,45.2.3,5.1-8.1,3.2-14.2,4.6-22.9,3.7-22.3,22.4-40.7,44.8-43.8,10.8-1.5,18.4.5,27-8.5,19.8-20.9-3-54.2-30.1-42.7-18.9,8-13.5,24.4-17.9,39.6-14.6,50-87,49.9-101.7.1-4-13.6.7-25.8-12.1-36.1-5.2-4.2-10.9-6-16.4-6-18.6,0-35,20.9-22.9,40.7"/>
    <g class="st6">
      <rect class="st7" x="79.4" y="157.9" width="232.9" height="146.1"/>
    </g>
  </g>
  <g>
    <path class="st7" d="M249.6,17.1c-2,.6-2.8,6.1-3,7.9-1,17.4,15.7,31.5,32.7,27.5,6.5-1.5,2.7-5.5.2-9.1-5.3-7.4-13.7-16-21-21.5-1.7-1.3-6.2-4.9-8.5-4.9s-.3,0-.5,0"/>
    <g class="st2">
      <rect class="st7" x="245.6" y="17.1" width="40.1" height="39.6"/>
    </g>
  </g>
  <g>
    <path class="st7" d="M48.6,17.1c-1.7.4-11.6,8.5-13.6,10.3-2.4,2.1-5.2,4.9-7.3,7.2-2.1,2.3-9.5,11.2-10.3,13.5-1.1,2.9.9,3.8,3.3,4.4,15.9,3.8,32.1-8.5,32.7-24.9,0-2.9-.2-10.6-4-10.6s-.5,0-.8.1"/>
    <g class="st5">
      <rect class="st7" x="16.3" y="17" width="37.2" height="39.3"/>
    </g>
  </g>
  <g>
    <path class="st7" d="M25.3,246.6c-2.7.1-9.1.7-8.1,4.6.5,1.9,8.2,11.3,10,13.3,4.2,4.7,14.9,14.8,20.3,17.5,2.5,1.3,4.1.6,4.9-2.2,4.9-16.6-8.9-33.4-25.8-33.4s-.9,0-1.4,0"/>
    <g class="st0">
      <rect class="st7" x="16.2" y="246.6" width="41.2" height="36.8"/>
    </g>
  </g>
  <g>
    <path class="st7" d="M271.9,246.6c-9.8.5-19.4,7.2-23.1,16.3-2.4,5.8-3.6,14.2.4,19.6,1.2.6,2.2.2,3.3-.3,7.5-3.8,25.9-22.2,29.8-29.8,2.5-4.9-4.6-5.8-8.9-5.8s-1.1,0-1.5,0"/>
    <g class="st1">
      <rect class="st7" x="245.2" y="246.6" width="39.6" height="36.5"/>
    </g>
  </g>
</svg>